<svg width="32" height="32" viewBox="0 0 32 32" fill="none" xmlns="http://www.w3.org/2000/svg">
  <!-- Background gradient -->
  <rect width="32" height="32" rx="6" fill="url(#grad1)"/>
  <defs>
    <linearGradient id="grad1" x1="0" y1="0" x2="32" y2="32">
      <stop offset="0%" style="stop-color:#3B82F6;stop-opacity:1" />
      <stop offset="100%" style="stop-color:#8B5CF6;stop-opacity:1" />
    </linearGradient>
  </defs>
  
  <!-- Book/Education symbol -->
  <path d="M16 8C13.5 8 11 9 9 10V22C11 21 13.5 20 16 20C18.5 20 21 21 23 22V10C21 9 18.5 8 16 8Z" fill="white" stroke="white" stroke-width="1.5" stroke-linejoin="round"/>
  <line x1="16" y1="20" x2="16" y2="8" stroke="white" stroke-width="1.5"/>
  
  <!-- Sparkle/Achievement star -->
  <circle cx="24" cy="8" r="3" fill="#FCD34D"/>
  <path d="M24 6L24.5 7.5L26 8L24.5 8.5L24 10L23.5 8.5L22 8L23.5 7.5L24 6Z" fill="#F59E0B"/>
</svg>
